<?xml version="1.0" standalone="no"?><!DOCTYPE svg PUBLIC "-//W3C//DTD SVG 20010904//EN" "http://www.w3.org/TR/2001/REC-SVG-20010904/DTD/svg10.dtd"><svg xmlns="http://www.w3.org/2000/svg" version="1.2" width="300.000000pt" height="300.000000pt" viewBox="0 0 300.000000 300.000000" preserveAspectRatio="xMidYMid meet" baseProfile="tiny-ps"><title>Company Name</title><g transform="translate(0.000000,300.000000) scale(0.100000,-0.100000)" fill="#000000" stroke="none"><path d="M0 1500 l0 -1500 1500 0 1500 0 0 1500 0 1500 -1500 0 -1500 0 0 -1500z m1887 545 c13 -14 23 -34 23 -44 0 -10 13 -22 35 -30 19 -6 42 -22 52 -35 18 -22 18 -22 58 -4 80 35 206 15 229 -38 9 -20 10 -20 35 8 37 40 77 45 122 15 34 -23 36 -23 47 -6 17 27 77 35 119 15 108 -52 67 -278 -60 -325 -72 -27 -216 9 -232 58 -7 23 -25 29 -25 8 0 -18 -49 -64 -83 -76 -36 -14 -111 -14 -159 -1 -71 20 -99 91 -57 144 18 23 19 29 8 44 -7 9 -14 18 -15 20 -1 1 -13 -2 -27 -7 -20 -8 -27 -19 -32 -48 -12 -75 -16 -86 -45 -114 -70 -71 -170 -9 -170 106 0 25 -3 45 -7 45 -5 0 -17 3 -29 6 -19 5 -22 0 -27 -50 -11 -108 -73 -160 -150 -125 -40 18 -60 64 -61 141 0 44 -4 68 -12 68 -6 0 -23 9 -37 20 l-25 20 5 -73 c7 -93 -8 -142 -51 -168 -59 -36 -128 -17 -160 44 -17 30 -23 34 -60 34 -36 0 -43 -4 -56 -31 -40 -83 -161 -84 -207 -2 -8 15 -13 14 -54 -8 -24 -13 -61 -28 -81 -31 -34 -7 -36 -9 -31 -39 3 -22 -1 -39 -15 -56 -19 -23 -27 -25 -104 -25 -126 1 -211 46 -261 140 -17 31 -22 58 -22 121 0 72 3 85 30 130 23 36 45 56 86 77 134 68 344 48 428 -42 l28 -30 22 49 c26 57 66 90 119 97 40 5 112 -18 112 -36 0 -6 16 1 36 14 20 14 50 25 66 25 56 0 114 -45 142 -110 l14 -35 7 27 c9 36 65 84 115 99 58 17 115 -1 141 -46 19 -31 21 -32 50 -21 21 7 37 24 51 52 23 51 49 65 108 60 33 -3 50 -11 67 -31z m-661 -649 c12 -13 24 -30 26 -36 2 -8 12 -8 35 0 36 13 81 -4 107 -42 18 -26 21 -80 5 -109 -6 -12 -8 -28 -5 -36 5 -11 13 -3 29 28 75 141 303 108 333 -48 6 -31 7 -32 27 -18 30 21 80 19 110 -5 l25 -20 4 113 c3 81 9 121 21 144 19 36 62 63 100 63 53 0 107 -72 107 -143 0 -19 3 -36 6 -40 3 -3 26 5 51 19 74 39 165 30 226 -24 16 -14 17 -13 17 20 0 129 100 209 179 143 16 -14 35 -42 42 -63 17 -49 17 -265 0 -315 -15 -45 -60 -77 -107 -77 -35 0 -80 30 -89 61 -7 20 -9 19 -44 -14 -20 -20 -49 -41 -64 -46 -65 -25 -156 -4 -202 45 -23 25 -24 25 -35 5 -13 -26 -61 -51 -95 -51 -37 0 -63 16 -85 52 -17 28 -18 29 -25 9 -10 -32 -54 -61 -93 -61 -27 0 -42 8 -67 34 l-32 35 -28 -29 c-56 -59 -160 -66 -235 -16 -22 14 -40 22 -40 16 0 -14 -54 -40 -83 -40 -13 0 -41 11 -61 25 l-38 25 -30 -25 c-44 -37 -91 -34 -134 9 -19 19 -34 41 -34 50 0 25 -13 19 -32 -14 -22 -38 -88 -69 -149 -70 -55 0 -131 24 -154 50 -17 19 -18 19 -45 -10 -46 -50 -123 -52 -177 -5 l-28 24 -26 -26 c-16 -14 -43 -27 -66 -30 -32 -4 -45 0 -71 22 -43 36 -55 88 -50 210 5 115 23 166 72 197 39 24 115 20 154 -9 l27 -19 35 24 c46 31 104 26 139 -14 21 -25 24 -26 33 -10 25 44 151 61 228 30 51 -20 75 -62 66 -114 -4 -23 -1 -43 8 -55 12 -16 14 -11 20 45 10 82 32 137 65 155 38 22 101 12 127 -19z"/><path d="M1770 2001 c-5 -11 -10 -31 -10 -44 0 -21 -8 -28 -42 -39 -35 -10 -44 -18 -46 -40 -3 -24 1 -28 35 -33 64 -11 63 -10 63 -80 0 -78 12 -105 45 -105 33 0 39 14 45 94 5 72 7 75 65 93 23 6 30 14 30 33 0 20 -7 26 -46 37 -40 12 -47 18 -53 45 -3 17 -11 37 -17 45 -17 19 -57 16 -69 -6z"/><path d="M940 1962 c-36 -37 -60 -117 -60 -203 0 -59 3 -70 22 -83 49 -35 86 -6 103 82 9 45 15 57 31 57 11 0 24 -12 32 -27 7 -16 19 -28 27 -28 8 0 20 12 27 28 8 15 21 27 32 27 16 0 22 -12 31 -57 18 -90 67 -125 110 -78 15 17 17 31 12 93 -7 96 -24 152 -58 188 -47 51 -91 35 -124 -45 -20 -47 -43 -45 -61 8 -8 21 -19 45 -25 52 -20 24 -68 17 -99 -14z"/><path d="M1435 1945 c-14 -13 -25 -31 -25 -40 0 -14 8 -15 45 -9 52 7 48 15 45 -107 -2 -93 9 -129 39 -129 37 0 46 27 46 144 0 141 -12 166 -81 166 -34 0 -51 -6 -69 -25z"/><path d="M437 1936 c-76 -28 -117 -88 -117 -171 0 -122 74 -192 216 -202 62 -5 74 -3 74 10 0 12 -12 15 -59 15 -71 0 -123 22 -154 66 -18 25 -22 45 -22 103 0 84 18 116 81 148 53 27 173 28 228 1 77 -39 90 -163 19 -195 -30 -14 -29 -14 -47 5 -10 10 -16 33 -16 66 0 42 -3 49 -16 44 -9 -3 -16 -6 -17 -6 -1 0 -1 -30 -1 -67 2 -68 2 -68 32 -71 46 -5 105 15 132 43 19 20 24 37 24 75 0 60 -23 96 -80 125 -50 26 -219 32 -277 11z"/><path d="M2094 1883 c-29 -6 -57 -37 -52 -60 1 -10 18 -25 36 -33 45 -21 41 -59 -8 -75 -23 -8 -36 -19 -38 -33 -7 -46 154 -55 191 -11 32 39 17 70 -45 97 -41 17 -35 40 17 62 86 37 12 75 -101 53z"/><path d="M2532 1868 c-6 -6 -12 -31 -12 -54 0 -43 -19 -74 -45 -74 -25 0 -45 31 -45 68 0 50 -11 64 -46 60 -26 -3 -30 -8 -38 -48 -11 -61 6 -125 41 -147 18 -12 47 -18 90 -18 54 0 66 4 88 25 36 36 55 131 34 168 -16 30 -48 39 -67 20z"/><path d="M492 1818 c-32 -39 -18 -129 22 -136 15 -3 16 -1 6 18 -12 22 -10 80 4 113 10 20 -16 24 -32 5z"/><path d="M2271 1784 c0 -11 3 -14 6 -6 3 7 2 16 -1 19 -3 4 -6 -2 -5 -13z"/><path d="M1121 1356 c-34 -41 -38 -273 -6 -322 20 -32 62 -32 75 -1 5 12 11 35 15 50 8 38 34 47 54 18 61 -87 94 -108 121 -76 18 22 4 63 -36 107 l-34 38 20 41 c28 54 23 83 -14 87 -19 2 -34 -3 -47 -17 -11 -12 -26 -21 -34 -21 -17 0 -35 30 -35 58 0 22 -30 52 -52 52 -9 0 -21 -6 -27 -14z"/><path d="M2004 1349 c-17 -19 -19 -36 -19 -159 0 -122 2 -140 19 -159 23 -26 48 -27 69 -3 14 15 17 42 17 153 0 143 -10 182 -46 187 -11 2 -29 -7 -40 -19z"/><path d="M2534 1349 c-17 -19 -19 -36 -19 -159 0 -122 2 -140 19 -159 23 -26 48 -27 69 -3 14 15 17 42 17 153 0 143 -10 182 -46 187 -11 2 -29 -7 -40 -19z"/><path d="M340 1315 c-21 -23 -24 -36 -27 -138 -4 -126 5 -160 48 -165 34 -4 45 12 61 83 10 47 18 60 32 60 13 0 23 -14 33 -45 31 -93 103 -130 140 -73 26 40 33 262 8 286 -37 38 -78 10 -92 -63 -12 -62 -41 -63 -64 -1 -29 80 -93 105 -139 56z"/><path d="M781 1328 c-33 -18 -30 -32 10 -39 65 -10 78 -36 34 -65 -36 -24 -31 -41 15 -48 62 -10 82 -71 34 -102 -21 -15 -31 -15 -58 -6 -47 17 -66 15 -66 -8 0 -29 37 -43 112 -44 61 -1 70 2 95 27 23 23 28 36 27 74 -1 37 -6 51 -27 69 -30 26 -32 34 -15 81 10 28 10 36 -4 49 -21 21 -125 29 -157 12z"/><path d="M711 1190 c-1 -54 0 -58 20 -53 15 4 19 11 15 27 -3 11 -6 33 -6 47 0 15 -6 29 -14 32 -10 4 -14 -8 -15 -53z"/><path d="M1523 1216 c-35 -16 -63 -61 -63 -101 0 -86 100 -141 180 -100 64 33 78 131 27 183 -30 30 -98 39 -144 18z m101 -79 c20 -29 11 -62 -20 -76 -21 -9 -28 -8 -49 14 -30 29 -31 39 -5 65 26 26 56 25 74 -3z"/><path d="M2243 1216 c-35 -16 -63 -61 -63 -101 0 -86 100 -141 180 -100 64 33 78 131 27 183 -30 30 -98 39 -144 18z m101 -79 c20 -29 11 -62 -20 -76 -21 -9 -28 -8 -49 14 -30 29 -31 39 -5 65 26 26 56 25 74 -3z"/><path d="M1804 1076 c-3 -8 -4 -25 -2 -38 2 -18 9 -23 33 -23 28 0 30 3 30 35 0 31 -3 35 -28 38 -17 2 -29 -2 -33 -12z"/></g></svg>
